<?xml version="1.0" encoding="UTF-8"?>
<svg xmlns="http://www.w3.org/2000/svg" xmlns:xlink="http://www.w3.org/1999/xlink" width="1898pt" height="1059pt" viewBox="0 0 1898 1059" version="1.2">
<defs>
<clipPath id="clip1">
  <path d="M 18.5 2.5 L 1898 2.5 L 1898 1059 L 18.5 1059 Z M 18.5 2.5 "/>
</clipPath>
<clipPath id="clip2">
  <path d="M 577.5 98.5 L 1348.5 98.5 L 1348.5 127.5 L 577.5 127.5 Z M 577.5 127.5 L 1348.5 127.5 L 1348.5 195.5 L 577.5 195.5 Z M 577.5 195.5 L 1348.5 195.5 L 1348.5 377.5 L 577.5 377.5 Z M 577.5 377.5 L 1348.5 377.5 L 1348.5 445.5 L 577.5 445.5 Z M 577.5 445.5 L 1348.5 445.5 L 1348.5 627.5 L 577.5 627.5 Z M 577.5 627.5 L 1348.5 627.5 L 1348.5 694.5 L 577.5 694.5 Z M 577.5 694.5 L 1348.5 694.5 L 1348.5 876.5 L 577.5 876.5 Z M 577.5 876.5 L 1348.5 876.5 L 1348.5 944.5 L 577.5 944.5 Z M 577.5 944.5 L 1348.5 944.5 L 1348.5 973.5 L 577.5 973.5 Z M 577.5 944.5 "/>
</clipPath>
</defs>
<g id="surface195">
<g clip-path="url(#clip1)" clip-rule="nonzero">

</g>
<g clip-path="url(#clip2)" clip-rule="nonzero">
<rect x="0" y="0" width="1898" height="1059" style="fill:rgb(92.54902%,0%,0%);fill-opacity:0.944882;stroke:none;"/>
<rect x="0" y="0" width="1898" height="1059" style="fill:rgb(18.039216%,50.196081%,100%);fill-opacity:0.629921;stroke:none;"/>
</g>
<path style="fill:none;stroke-width:2;stroke-linecap:butt;stroke-linejoin:miter;stroke:rgb(0%,0%,0%);stroke-opacity:0.724409;stroke-miterlimit:10;" d="M 606 952 L 1320 952 M 606 884 L 1320 884 M 606 884 L 606 952 M 1320 884 L 1320 952 M 606 702 L 1320 702 M 606 634 L 1320 634 M 606 634 L 606 702 M 1320 634 L 1320 702 M 606 452 L 1320 452 M 606 385 L 1320 385 M 606 385 L 606 452 M 1320 385 L 1320 452 M 606 203 L 1320 203 M 606 135 L 1320 135 M 606 135 L 606 203 M 1320 135 L 1320 203 " transform="matrix(1,0,0,-1,0.5,1079.5)"/>
<path style="fill:none;stroke-width:2;stroke-linecap:butt;stroke-linejoin:miter;stroke:rgb(0%,0%,0%);stroke-opacity:0.724409;stroke-miterlimit:10;" d="M 606 884 L 1320 952 M 606 952 L 1320 884 M 606 634 L 1320 702 M 606 702 L 1320 634 M 606 385 L 1320 452 M 606 452 L 1320 385 M 606 135 L 1320 203 M 606 203 L 1320 135 " transform="matrix(1,0,0,-1,0.5,1079.5)"/>
</g>
</svg>
