<?xml version="1.0" encoding="UTF-8"?>
<svg xmlns="http://www.w3.org/2000/svg" xmlns:xlink="http://www.w3.org/1999/xlink" width="1898pt" height="1059pt" viewBox="0 0 1898 1059" version="1.2">
<defs>
<clipPath id="clip1">
  <path d="M 18.5 2.5 L 1898 2.5 L 1898 1059 L 18.5 1059 Z M 18.5 2.5 "/>
</clipPath>
<clipPath id="clip2">
  <path d="M 785.5 98.5 L 1145.5 98.5 L 1145.5 112.5 L 785.5 112.5 Z M 785.5 112.5 L 1145.5 112.5 L 1145.5 143.5 L 785.5 143.5 Z M 785.5 143.5 L 1145.5 143.5 L 1145.5 228.5 L 785.5 228.5 Z M 785.5 228.5 L 1145.5 228.5 L 1145.5 260.5 L 785.5 260.5 Z M 785.5 260.5 L 1145.5 260.5 L 1145.5 345.5 L 785.5 345.5 Z M 785.5 345.5 L 1145.5 345.5 L 1145.5 377.5 L 785.5 377.5 Z M 785.5 377.5 L 1145.5 377.5 L 1145.5 462.5 L 785.5 462.5 Z M 785.5 462.5 L 1145.5 462.5 L 1145.5 494.5 L 785.5 494.5 Z M 785.5 494.5 L 1145.5 494.5 L 1145.5 579.5 L 785.5 579.5 Z M 785.5 579.5 L 1145.5 579.5 L 1145.5 610.5 L 785.5 610.5 Z M 785.5 610.5 L 1145.5 610.5 L 1145.5 695.5 L 785.5 695.5 Z M 785.5 695.5 L 1145.5 695.5 L 1145.5 727.5 L 785.5 727.5 Z M 785.5 727.5 L 1145.5 727.5 L 1145.5 812.5 L 785.5 812.5 Z M 785.5 812.5 L 1145.5 812.5 L 1145.5 844.5 L 785.5 844.5 Z M 785.5 844.5 L 1145.5 844.5 L 1145.5 929.5 L 785.5 929.5 Z M 785.5 929.5 L 1145.5 929.5 L 1145.5 961.5 L 785.5 961.5 Z M 785.5 961.5 L 1145.5 961.5 L 1145.5 974.5 L 785.5 974.5 Z M 785.5 961.5 "/>
</clipPath>
</defs>
<g id="surface202">
<g clip-path="url(#clip1)" clip-rule="nonzero">

</g>
<g clip-path="url(#clip2)" clip-rule="nonzero">
<rect x="0" y="0" width="1898" height="1059" style="fill:rgb(92.54902%,0%,0%);fill-opacity:0.944882;stroke:none;"/>
<rect x="0" y="0" width="1898" height="1059" style="fill:rgb(18.039216%,50.196081%,100%);fill-opacity:0.629921;stroke:none;"/>
</g>
<path style="fill:none;stroke-width:2;stroke-linecap:butt;stroke-linejoin:miter;stroke:rgb(0%,0%,0%);stroke-opacity:0.724409;stroke-miterlimit:10;" d="M 798 967 L 1132 967 M 798 936 L 1132 936 M 798 936 L 798 967 M 1132 936 L 1132 967 M 798 851 L 1132 851 M 798 819 L 1132 819 M 798 819 L 798 851 M 1132 819 L 1132 851 M 798 734 L 1132 734 M 798 702 L 1132 702 M 798 702 L 798 734 M 1132 702 L 1132 734 M 798 617 L 1132 617 M 798 585 L 1132 585 M 798 585 L 798 617 M 1132 585 L 1132 617 M 798 500 L 1132 500 M 798 469 L 1132 469 M 798 469 L 798 500 M 1132 469 L 1132 500 M 798 384 L 1132 384 M 798 352 L 1132 352 M 798 352 L 798 384 M 1132 352 L 1132 384 M 798 267 L 1132 267 M 798 235 L 1132 235 M 798 235 L 798 267 M 1132 235 L 1132 267 M 798 150 L 1132 150 M 798 118 L 1132 118 M 798 118 L 798 150 M 1132 118 L 1132 150 " transform="matrix(1,0,0,-1,0.5,1079.5)"/>
<path style="fill:none;stroke-width:2;stroke-linecap:butt;stroke-linejoin:miter;stroke:rgb(0%,0%,0%);stroke-opacity:0.724409;stroke-miterlimit:10;" d="M 798 936 L 1132 967 M 798 967 L 1132 936 M 798 819 L 1132 851 M 798 851 L 1132 819 M 798 702 L 1132 734 M 798 734 L 1132 702 M 798 585 L 1132 617 M 798 617 L 1132 585 M 798 469 L 1132 500 M 798 500 L 1132 469 M 798 352 L 1132 384 M 798 384 L 1132 352 M 798 235 L 1132 267 M 798 267 L 1132 235 M 798 118 L 1132 150 M 798 150 L 1132 118 " transform="matrix(1,0,0,-1,0.5,1079.5)"/>
</g>
</svg>
