<?xml version="1.0" encoding="UTF-8"?>
<svg xmlns="http://www.w3.org/2000/svg" xmlns:xlink="http://www.w3.org/1999/xlink" width="1898pt" height="1059pt" viewBox="0 0 1898 1059" version="1.2">
<defs>
<clipPath id="clip1">
  <path d="M 18.5 2.5 L 1898 2.5 L 1898 1059 L 18.5 1059 Z M 18.5 2.5 "/>
</clipPath>
<clipPath id="clip2">
  <path d="M 175.5 405.5 L 1744.5 405.5 L 1744.5 463.5 L 175.5 463.5 Z M 175.5 463.5 L 1744.5 463.5 L 1744.5 601.5 L 175.5 601.5 Z M 175.5 601.5 L 1744.5 601.5 L 1744.5 659.5 L 175.5 659.5 Z M 175.5 601.5 "/>
</clipPath>
</defs>
<g id="surface193">
<g clip-path="url(#clip1)" clip-rule="nonzero">

</g>
<g clip-path="url(#clip2)" clip-rule="nonzero">
<rect x="0" y="0" width="1898" height="1059" style="fill:rgb(92.54902%,0%,0%);fill-opacity:0.944882;stroke:none;"/>
<rect x="0" y="0" width="1898" height="1059" style="fill:rgb(18.039216%,50.196081%,100%);fill-opacity:0.629921;stroke:none;"/>
</g>
<path style="fill:none;stroke-width:2;stroke-linecap:butt;stroke-linejoin:miter;stroke:rgb(0%,0%,0%);stroke-opacity:0.724409;stroke-miterlimit:10;" d="M 233 616 L 1685 616 M 233 478 L 1685 478 M 233 478 L 233 616 M 1685 478 L 1685 616 " transform="matrix(1,0,0,-1,0.5,1079.5)"/>
<path style="fill:none;stroke-width:2;stroke-linecap:butt;stroke-linejoin:miter;stroke:rgb(0%,0%,0%);stroke-opacity:0.724409;stroke-miterlimit:10;" d="M 233 478 L 1685 616 M 233 616 L 1685 478 " transform="matrix(1,0,0,-1,0.5,1079.5)"/>
</g>
</svg>
