<?xml version="1.0" encoding="UTF-8"?>
<svg xmlns="http://www.w3.org/2000/svg" xmlns:xlink="http://www.w3.org/1999/xlink" width="1898pt" height="1059pt" viewBox="0 0 1898 1059" version="1.2">
<defs>
<clipPath id="clip1">
  <path d="M 18.5 2.5 L 1898 2.5 L 1898 1059 L 18.5 1059 Z M 18.5 2.5 "/>
</clipPath>
<clipPath id="clip2">
  <path d="M 175.5 154.5 L 1744.5 154.5 L 1744.5 212.5 L 175.5 212.5 Z M 175.5 212.5 L 1744.5 212.5 L 1744.5 350.5 L 175.5 350.5 Z M 175.5 350.5 L 1744.5 350.5 L 1744.5 721.5 L 175.5 721.5 Z M 175.5 721.5 L 1744.5 721.5 L 1744.5 859.5 L 175.5 859.5 Z M 175.5 859.5 L 1744.5 859.5 L 1744.5 917.5 L 175.5 917.5 Z M 175.5 859.5 "/>
</clipPath>
</defs>
<g id="surface191">
<g clip-path="url(#clip1)" clip-rule="nonzero">

</g>
<g clip-path="url(#clip2)" clip-rule="nonzero">
<rect x="0" y="0" width="1898" height="1059" style="fill:rgb(92.54902%,0%,0%);fill-opacity:0.944882;stroke:none;"/>
<rect x="0" y="0" width="1898" height="1059" style="fill:rgb(18.039216%,50.196081%,100%);fill-opacity:0.629921;stroke:none;"/>
</g>
<path style="fill:none;stroke-width:2;stroke-linecap:butt;stroke-linejoin:miter;stroke:rgb(0%,0%,0%);stroke-opacity:0.724409;stroke-miterlimit:10;" d="M 233 867 L 1685 867 M 233 729 L 1685 729 M 233 729 L 233 867 M 1685 729 L 1685 867 M 233 358 L 1685 358 M 233 220 L 1685 220 M 233 220 L 233 358 M 1685 220 L 1685 358 " transform="matrix(1,0,0,-1,0.5,1079.5)"/>
<path style="fill:none;stroke-width:2;stroke-linecap:butt;stroke-linejoin:miter;stroke:rgb(0%,0%,0%);stroke-opacity:0.724409;stroke-miterlimit:10;" d="M 233 729 L 1685 867 M 233 867 L 1685 729 M 233 220 L 1685 358 M 233 358 L 1685 220 " transform="matrix(1,0,0,-1,0.5,1079.5)"/>
</g>
</svg>
